<?xml version="1.0" encoding="utf-8"?>
<!-- Generator: Adobe Illustrator 21.1.0, SVG Export Plug-In . SVG Version: 6.00 Build 0)  -->
<svg version="1.1" xmlns="http://www.w3.org/2000/svg" xmlns:xlink="http://www.w3.org/1999/xlink" x="0px" y="0px"
	 viewBox="0 0 70 70" enable-background="new 0 0 70 70" xml:space="preserve">
<pattern  x="-285" y="-353" width="10" height="10" patternUnits="userSpaceOnUse" id="Neues_Musterfeld_3" viewBox="0 -10 10 10" overflow="visible">
	<g>
		<rect y="-10" fill="none" width="10" height="10"/>
		<rect x="3" y="-4" opacity="0.5" width="1" height="1"/>
		<rect x="4" y="-4" opacity="0.2" width="1" height="1"/>
		<rect x="4" y="-5" transform="matrix(-1 -1.224647e-16 1.224647e-16 -1 9 -9)" opacity="0.5" width="1" height="1"/>
		<rect x="3" y="-5" transform="matrix(-1 -1.224647e-16 1.224647e-16 -1 7 -9)" opacity="0.2" width="1" height="1"/>
		<rect x="5" y="-6" opacity="0.5" width="1" height="1"/>
		<rect x="6" y="-6" opacity="0.2" width="1" height="1"/>
		<rect x="6" y="-7" transform="matrix(-1 -1.224647e-16 1.224647e-16 -1 13 -13)" opacity="0.5" width="1" height="1"/>
		<rect x="5" y="-7" transform="matrix(-1 -1.224647e-16 1.224647e-16 -1 11 -13)" opacity="0.2" width="1" height="1"/>
		<rect x="3" y="-6" opacity="0.5" width="1" height="1"/>
		<rect x="4" y="-6" opacity="0.2" width="1" height="1"/>
		<rect x="4" y="-7" transform="matrix(-1 -1.224647e-16 1.224647e-16 -1 9 -13)" opacity="0.5" width="1" height="1"/>
		<rect x="3" y="-7" transform="matrix(-1 -1.224647e-16 1.224647e-16 -1 7 -13)" opacity="0.2" width="1" height="1"/>
		<rect x="1" y="-4" opacity="0.5" width="1" height="1"/>
		<rect x="1" y="-5" transform="matrix(-1 -1.224647e-16 1.224647e-16 -1 3 -9)" opacity="0.2" width="1" height="1"/>
		<rect x="1" y="-6" opacity="0.5" width="1" height="1"/>
		<rect x="1" y="-7" transform="matrix(-1 -1.224647e-16 1.224647e-16 -1 3 -13)" opacity="0.2" width="1" height="1"/>
		<rect x="5" y="-4" opacity="0.5" width="1" height="1"/>
		<rect x="6" y="-4" opacity="0.2" width="1" height="1"/>
		<rect x="6" y="-5" transform="matrix(-1 -1.224647e-16 1.224647e-16 -1 13 -9)" opacity="0.5" width="1" height="1"/>
		<rect x="2" y="-6" opacity="0.2" width="1" height="1"/>
		<rect x="2" y="-7" transform="matrix(-1 -1.224647e-16 1.224647e-16 -1 5 -13)" opacity="0.5" width="1" height="1"/>
		<rect x="2" y="-4" opacity="0.2" width="1" height="1"/>
		<rect x="2" y="-5" transform="matrix(-1 -1.224647e-16 1.224647e-16 -1 5 -9)" opacity="0.5" width="1" height="1"/>
		<rect x="5" y="-5" transform="matrix(-1 -1.224647e-16 1.224647e-16 -1 11 -9)" opacity="0.2" width="1" height="1"/>
		<rect x="7" y="-6" opacity="0.5" width="1" height="1"/>
		<rect x="8" y="-6" opacity="0.2" width="1" height="1"/>
		<rect x="8" y="-7" transform="matrix(-1 -1.224647e-16 1.224647e-16 -1 17 -13)" opacity="0.5" width="1" height="1"/>
		<rect x="7" y="-7" transform="matrix(-1 -1.224647e-16 1.224647e-16 -1 15 -13)" opacity="0.2" width="1" height="1"/>
		<rect x="7" y="-4" opacity="0.5" width="1" height="1"/>
		<rect x="8" y="-4" opacity="0.2" width="1" height="1"/>
		<rect x="8" y="-5" transform="matrix(-1 -1.224647e-16 1.224647e-16 -1 17 -9)" opacity="0.5" width="1" height="1"/>
		<rect x="7" y="-5" transform="matrix(-1 -1.224647e-16 1.224647e-16 -1 15 -9)" opacity="0.2" width="1" height="1"/>
		<rect x="3" y="-2" opacity="0.5" width="1" height="1"/>
		<rect x="4" y="-2" opacity="0.2" width="1" height="1"/>
		<rect x="4" y="-3" transform="matrix(-1 -1.224647e-16 1.224647e-16 -1 9 -5)" opacity="0.5" width="1" height="1"/>
		<rect x="3" y="-3" transform="matrix(-1 -1.224647e-16 1.224647e-16 -1 7 -5)" opacity="0.2" width="1" height="1"/>
		<rect x="1" y="-2" opacity="0.5" width="1" height="1"/>
		<rect x="1" y="-3" transform="matrix(-1 -1.224647e-16 1.224647e-16 -1 3 -5)" opacity="0.2" width="1" height="1"/>
		<rect x="5" y="-2" opacity="0.5" width="1" height="1"/>
		<rect x="6" y="-2" opacity="0.2" width="1" height="1"/>
		<rect x="6" y="-3" transform="matrix(-1 -1.224647e-16 1.224647e-16 -1 13 -5)" opacity="0.5" width="1" height="1"/>
		<rect x="2" y="-2" opacity="0.2" width="1" height="1"/>
		<rect x="2" y="-3" transform="matrix(-1 -1.224647e-16 1.224647e-16 -1 5 -5)" opacity="0.5" width="1" height="1"/>
		<rect x="5" y="-3" transform="matrix(-1 -1.224647e-16 1.224647e-16 -1 11 -5)" opacity="0.2" width="1" height="1"/>
		<rect x="7" y="-2" opacity="0.5" width="1" height="1"/>
		<rect x="8" y="-2" opacity="0.2" width="1" height="1"/>
		<rect x="8" y="-3" transform="matrix(-1 -1.224647e-16 1.224647e-16 -1 17 -5)" opacity="0.5" width="1" height="1"/>
		<rect x="7" y="-3" transform="matrix(-1 -1.224647e-16 1.224647e-16 -1 15 -5)" opacity="0.2" width="1" height="1"/>
		<rect x="3" y="-8" opacity="0.5" width="1" height="1"/>
		<rect x="4" y="-8" opacity="0.2" width="1" height="1"/>
		<rect x="4" y="-9" transform="matrix(-1 -1.224647e-16 1.224647e-16 -1 9 -17)" opacity="0.5" width="1" height="1"/>
		<rect x="3" y="-9" transform="matrix(-1 -1.224647e-16 1.224647e-16 -1 7 -17)" opacity="0.2" width="1" height="1"/>
		<rect x="1" y="-8" opacity="0.5" width="1" height="1"/>
		<rect x="1" y="-9" transform="matrix(-1 -1.224647e-16 1.224647e-16 -1 3 -17)" opacity="0.2" width="1" height="1"/>
		<rect x="5" y="-8" opacity="0.5" width="1" height="1"/>
		<rect x="6" y="-8" opacity="0.2" width="1" height="1"/>
		<rect x="6" y="-9" transform="matrix(-1 -1.224647e-16 1.224647e-16 -1 13 -17)" opacity="0.5" width="1" height="1"/>
		<rect x="2" y="-8" opacity="0.2" width="1" height="1"/>
		<rect x="2" y="-9" transform="matrix(-1 -1.224647e-16 1.224647e-16 -1 5 -17)" opacity="0.5" width="1" height="1"/>
		<rect x="0" y="-6" opacity="0.2" width="1" height="1"/>
		<rect x="0" y="-7" transform="matrix(-1 -1.224647e-16 1.224647e-16 -1 1 -13)" opacity="0.5" width="1" height="1"/>
		<rect x="0" y="-4" opacity="0.2" width="1" height="1"/>
		<rect x="0" y="-5" transform="matrix(-1 -1.224647e-16 1.224647e-16 -1 1 -9)" opacity="0.5" width="1" height="1"/>
		<rect x="0" y="-2" opacity="0.2" width="1" height="1"/>
		<rect x="0" y="-3" transform="matrix(-1 -1.224647e-16 1.224647e-16 -1 1 -5)" opacity="0.5" width="1" height="1"/>
		<rect x="0" y="-8" opacity="0.2" width="1" height="1"/>
		<rect x="0" y="-9" transform="matrix(-1 -1.224647e-16 1.224647e-16 -1 1 -17)" opacity="0.5" width="1" height="1"/>
		<rect x="5" y="-9" transform="matrix(-1 -1.224647e-16 1.224647e-16 -1 11 -17)" opacity="0.2" width="1" height="1"/>
		<rect x="7" y="-8" opacity="0.5" width="1" height="1"/>
		<rect x="8" y="-8" opacity="0.2" width="1" height="1"/>
		<rect x="8" y="-9" transform="matrix(-1 -1.224647e-16 1.224647e-16 -1 17 -17)" opacity="0.5" width="1" height="1"/>
		<rect x="7" y="-9" transform="matrix(-1 -1.224647e-16 1.224647e-16 -1 15 -17)" opacity="0.2" width="1" height="1"/>
		<rect x="9" y="-6" opacity="0.5" width="1" height="1"/>
		<rect x="9" y="-7" transform="matrix(-1 -1.224647e-16 1.224647e-16 -1 19 -13)" opacity="0.2" width="1" height="1"/>
		<rect x="9" y="-4" opacity="0.5" width="1" height="1"/>
		<rect x="9" y="-5" transform="matrix(-1 -1.224647e-16 1.224647e-16 -1 19 -9)" opacity="0.2" width="1" height="1"/>
		<rect x="9" y="-2" opacity="0.5" width="1" height="1"/>
		<rect x="3" y="-10" opacity="0.5" width="1" height="1"/>
		<rect x="4" y="-10" opacity="0.2" width="1" height="1"/>
		<rect x="1" y="-10" opacity="0.5" width="1" height="1"/>
		<rect x="5" y="-10" opacity="0.5" width="1" height="1"/>
		<rect x="6" y="-10" opacity="0.2" width="1" height="1"/>
		<rect x="2" y="-10" opacity="0.2" width="1" height="1"/>
		<rect x="7" y="-10" opacity="0.5" width="1" height="1"/>
		<rect x="8" y="-10" opacity="0.2" width="1" height="1"/>
		<rect x="0" y="-10" opacity="0.2" width="1" height="1"/>
		<rect x="9" y="-10" opacity="0.5" width="1" height="1"/>
		<rect x="6" y="-1" transform="matrix(-1 -1.224647e-16 1.224647e-16 -1 13 -1)" opacity="0.5" width="1" height="1"/>
		<rect x="5" y="-1" transform="matrix(-1 -1.224647e-16 1.224647e-16 -1 11 -1)" opacity="0.2" width="1" height="1"/>
		<rect x="8" y="-1" transform="matrix(-1 -1.224647e-16 1.224647e-16 -1 17 -1)" opacity="0.5" width="1" height="1"/>
		<rect x="4" y="-1" transform="matrix(-1 -1.224647e-16 1.224647e-16 -1 9 -1)" opacity="0.5" width="1" height="1"/>
		<rect x="3" y="-1" transform="matrix(-1 -1.224647e-16 1.224647e-16 -1 7 -1)" opacity="0.2" width="1" height="1"/>
		<rect x="7" y="-1" transform="matrix(-1 -1.224647e-16 1.224647e-16 -1 15 -1)" opacity="0.2" width="1" height="1"/>
		<rect x="2" y="-1" transform="matrix(-1 -1.224647e-16 1.224647e-16 -1 5 -1)" opacity="0.5" width="1" height="1"/>
		<rect x="1" y="-1" transform="matrix(-1 -1.224647e-16 1.224647e-16 -1 3 -1)" opacity="0.2" width="1" height="1"/>
		<rect x="9" y="-1" transform="matrix(-1 -1.224647e-16 1.224647e-16 -1 19 -1)" opacity="0.2" width="1" height="1"/>
		<rect x="0" y="-1" transform="matrix(-1 -1.224647e-16 1.224647e-16 -1 1 -1)" opacity="0.5" width="1" height="1"/>
		<rect x="9" y="-3" transform="matrix(-1 -1.224647e-16 1.224647e-16 -1 19 -5)" opacity="0.2" width="1" height="1"/>
		<rect x="9" y="-8" opacity="0.5" width="1" height="1"/>
		<rect x="9" y="-9" transform="matrix(-1 -1.224647e-16 1.224647e-16 -1 19 -17)" opacity="0.2" width="1" height="1"/>
	</g>
</pattern>
<g id="Grid" display="none">
	<pattern  id="_x31_pixel_grid_2_" xlink:href="#Neues_Musterfeld_3" patternTransform="matrix(0.5 0 0 0.5 -3801.5 -3753.5)">
	</pattern>
	
		<rect id="_x31_pixel_grid_1_" x="-13" y="-13" display="inline" opacity="0.8" fill="url(#_x31_pixel_grid_2_)" width="96" height="96"/>
	<g display="inline">
		<g opacity="0.2">
			<path fill="#FF0000" d="M75-5v80H-5V-5H75 M83-13h-96v96h96V-13L83-13z"/>
		</g>
		<g opacity="0.2">
			<path fill="#00FF00" d="M74,4v62H-4V4H74 M75,3H-5v64h80V3L75,3z"/>
		</g>
		<g opacity="0.2">
			<path fill="#0000FF" d="M66,4v62H4V4H66 M67,3H3v64h64V3L67,3z"/>
		</g>
		<g opacity="0.2">
			<path fill="#00FF00" d="M66-4v78H4V-4H66 M67-5H3v80h64V-5L67-5z"/>
		</g>
		<g opacity="0.2">
			<path fill="#0000FF" d="M54,16v38H16V16H54 M55,15H15v40h40V15L55,15z"/>
		</g>
		<g opacity="0.2">
			<path fill="#FF0000" d="M35-4c21.5,0,39,17.5,39,39S56.5,74,35,74S-4,56.5-4,35S13.5-4,35-4 M35-5C12.9-5-5,12.9-5,35
				s17.9,40,40,40s40-17.9,40-40S57.1-5,35-5L35-5z"/>
		</g>
	</g>
</g>
<g id="Icons">
	<path d="M34.8,4c17.4,0,31.5,14.1,31.5,31.5S52.2,67,34.8,67S3.3,52.9,3.3,35.5S17.4,4,34.8,4 M34.8,0.5c-19.3,0-35,15.7-35,35
		s15.7,35,35,35s35-15.7,35-35S54.1,0.5,34.8,0.5L34.8,0.5z"/>
	<g>
		<path d="M18.8,21.8v4.5h2v-1.4l16,11.5l16-11.4v18.6c0,1.8-1,3.8-2.5,3.8h-26c-1.7,0-3-2-3-3.5h-2c0,3,2.3,5.5,5,5.5h26
			c2.8,0,4.5-3,4.5-5.8V21.8H18.8z M22.7,23.8H51L36.8,33.9L22.7,23.8z"/>
		<g>
			<rect x="14.8" y="39.2" width="8" height="2"/>
		</g>
		<g>
			<rect x="14.8" y="28.8" width="8" height="2"/>
		</g>
		<g>
			<rect x="16.8" y="34.2" width="6" height="2"/>
		</g>
	</g>
</g>
<g id="Titles" display="none">
	<text transform="matrix(1 0 0 1 -13 -24.1299)" display="inline" font-family="'BoschSans-Light'" font-size="6px">Twitter</text>
</g>
</svg>
